<svg viewBox="0 0 18 20" fill="none" xmlns="http://www.w3.org/2000/svg">
<path d="M12.4925 7.3V4.6C12.4925 2.61178 10.9289 1 9 1C7.07114 1 5.5075 2.61178 5.5075 4.6V7.3M1.65876 8.51677L1.13488 14.2768C0.985929 15.9145 0.911453 16.7334 1.17509 17.3658C1.40668 17.9215 1.81253 18.3809 2.32759 18.6704C2.9139 19 3.71179 19 5.30759 19H12.6924C14.2882 19 15.0861 19 15.6724 18.6704C16.1875 18.3809 16.5933 17.9215 16.8249 17.3658C17.0885 16.7334 17.0141 15.9145 16.8651 14.2768L16.3412 8.51677C16.2155 7.13381 16.1526 6.44233 15.8508 5.91955C15.5851 5.45913 15.1925 5.0906 14.723 4.86086C14.1899 4.6 13.5161 4.6 12.1685 4.6L5.83147 4.6C4.48392 4.6 3.81015 4.6 3.27702 4.86086C2.8075 5.0906 2.41489 5.45913 2.14916 5.91955C1.84743 6.44233 1.78454 7.13381 1.65876 8.51677Z" stroke="#707070" stroke-width="1.5" stroke-linecap="round" stroke-linejoin="round"/>
</svg>
